<svg width="24" height="24" viewBox="0 0 24 24" fill="none" xmlns="http://www.w3.org/2000/svg">
<path d="M22.162 5.6569C21.3986 5.9946 20.589 6.21638 19.76 6.3149C20.6338 5.79234 21.2877 4.96992 21.6 4.0009C20.78 4.4889 19.881 4.8309 18.944 5.0159C18.3146 4.34248 17.4804 3.89587 16.571 3.74549C15.6616 3.59511 14.7279 3.74939 13.9153 4.18436C13.1026 4.61932 12.4564 5.31059 12.0771 6.1507C11.6978 6.9908 11.6068 7.93268 11.818 8.8299C10.1551 8.74656 8.52834 8.31443 7.04329 7.56157C5.55825 6.80871 4.24813 5.75195 3.19801 4.4599C2.8263 5.09835 2.63096 5.82413 2.63201 6.5629C2.63201 8.0129 3.37001 9.2939 4.49201 10.0439C3.82802 10.023 3.17864 9.84368 2.59801 9.5209V9.5729C2.59821 10.5386 2.93238 11.4745 3.54385 12.222C4.15533 12.9694 5.00649 13.4824 5.95301 13.6739C5.33662 13.8409 4.69031 13.8656 4.06301 13.7459C4.32987 14.5771 4.85001 15.3041 5.5506 15.825C6.25118 16.3459 7.09714 16.6347 7.97001 16.6509C7.10249 17.3322 6.10918 17.8359 5.04689 18.1331C3.98459 18.4303 2.87413 18.5152 1.77901 18.3829C3.6907 19.6123 5.9161 20.265 8.18901 20.2629C15.882 20.2629 20.089 13.8899 20.089 8.3629C20.089 8.1829 20.084 8.0009 20.076 7.8229C20.8949 7.23107 21.6016 6.49792 22.163 5.6579L22.162 5.6569Z" fill="white"/>
</svg>
