<svg width="61" height="60" viewBox="0 0 61 60" fill="none" xmlns="http://www.w3.org/2000/svg">
<path d="M30.5 0C14 0 0.5 13.5241 0.5 30.1807C0.5 45.241 11.48 57.741 25.82 60V38.9157H18.2V30.1807H25.82V23.5241C25.82 15.9639 30.29 11.8072 37.16 11.8072C40.43 11.8072 43.8499 12.3795 43.8499 12.3795V19.8193H40.07C36.35 19.8193 35.18 22.1386 35.18 24.5181V30.1807H43.5199L42.1699 38.9157H35.18V60C42.2493 58.8791 48.6866 55.2576 53.3297 49.7893C57.9729 44.3211 60.516 37.3664 60.4999 30.1807C60.4999 13.5241 46.9999 0 30.5 0Z" fill="#CACACA"/>
</svg>
