<svg width="61" height="60" viewBox="0 0 61 60" fill="none" xmlns="http://www.w3.org/2000/svg">
<g clip-path="url(#clip0_136320_4681)">
<path d="M24.7578 30C24.7578 33.1714 27.3286 35.7422 30.5 35.7422C33.6714 35.7422 36.2422 33.1714 36.2422 30C36.2422 26.8286 33.6714 24.2578 30.5 24.2578C27.3286 24.2578 24.7578 26.8286 24.7578 30Z" fill="#CACACA"/>
<path d="M17.0712 19.8403C17.3472 19.0923 17.7876 18.4153 18.3598 17.8596C18.9155 17.2874 19.5921 16.847 20.3405 16.571C20.9475 16.3352 21.8594 16.0546 23.5389 15.9781C25.3558 15.8953 25.9005 15.8774 30.5001 15.8774C35.1002 15.8774 35.6449 15.8948 37.4613 15.9777C39.1409 16.0546 40.0532 16.3352 40.6597 16.571C41.4082 16.847 42.0852 17.2874 42.6405 17.8596C43.2127 18.4153 43.653 19.0919 43.9295 19.8403C44.1653 20.4473 44.4459 21.3596 44.5223 23.0392C44.6052 24.8556 44.623 25.4003 44.623 30.0004C44.623 34.6 44.6052 35.1447 44.5223 36.9616C44.4459 38.6411 44.1653 39.553 43.9295 40.16C43.653 40.9084 43.2131 41.585 42.6409 42.1407C42.0852 42.7129 41.4086 43.1533 40.6602 43.4293C40.0532 43.6655 39.1409 43.9461 37.4613 44.0226C35.6449 44.1054 35.1006 44.1228 30.5006 44.1228C25.9001 44.1228 25.3553 44.1054 23.5394 44.0226C21.8598 43.9461 20.9475 43.6655 20.3405 43.4293C18.8381 42.8498 17.6507 41.6624 17.0712 40.16C16.8354 39.553 16.5548 38.6411 16.4779 36.9616C16.3951 35.1447 16.3777 34.6 16.3777 30.0004C16.3777 25.4003 16.3951 24.8556 16.4779 23.0392C16.5544 21.3596 16.835 20.4473 17.0712 19.8403ZM30.5001 38.8457C35.3858 38.8457 39.3464 34.8856 39.3464 29.9999C39.3464 25.1142 35.3858 21.1541 30.5001 21.1541C25.6149 21.1541 21.6543 25.1142 21.6543 29.9999C21.6543 34.8856 25.6149 38.8457 30.5001 38.8457ZM21.3046 22.8716C22.4462 22.8716 23.3718 21.946 23.3718 20.8044C23.3718 19.6627 22.4462 18.7371 21.3046 18.7371C20.1629 18.7371 19.2373 19.6627 19.2373 20.8044C19.2378 21.946 20.1629 22.8716 21.3046 22.8716Z" fill="#CACACA"/>
<path d="M30.5 0C47.066 0 60.5 13.434 60.5 30C60.5 46.566 47.066 60 30.5 60C13.934 60 0.5 46.566 0.5 30C0.5 13.434 13.934 0 30.5 0ZM13.3773 37.1022C13.4607 38.936 13.7523 40.188 14.178 41.2839C15.0729 43.5979 16.9021 45.4271 19.2161 46.322C20.3116 46.7477 21.564 47.0389 23.3973 47.1227C25.2343 47.2064 25.8212 47.2266 30.4995 47.2266C35.1783 47.2266 35.7647 47.2064 37.6022 47.1227C39.4355 47.0389 40.688 46.7477 41.7834 46.322C42.9333 45.8894 43.9743 45.2115 44.8349 44.3349C45.711 43.4747 46.389 42.4333 46.8216 41.2839C47.2473 40.1884 47.5389 38.936 47.6222 37.1027C47.7069 35.2652 47.7266 34.6783 47.7266 30C47.7266 25.3217 47.7069 24.7348 47.6227 22.8978C47.5393 21.064 47.2482 19.812 46.8225 18.7161C46.3899 17.5667 45.7115 16.5253 44.8349 15.6651C43.9747 14.7885 42.9333 14.1106 41.7839 13.678C40.688 13.2523 39.436 12.9611 37.6022 12.8773C35.7652 12.7936 35.1783 12.7734 30.5 12.7734C25.8217 12.7734 25.2348 12.7936 23.3978 12.8778C21.564 12.9611 20.312 13.2523 19.2161 13.6775C18.0667 14.1101 17.0253 14.7885 16.1647 15.6651C15.2885 16.5257 14.6101 17.5667 14.178 18.7161C13.7518 19.812 13.4607 21.064 13.3769 22.8978C13.2931 24.7348 13.2734 25.3217 13.2734 30C13.2734 34.6783 13.2931 35.2652 13.3773 37.1022Z" fill="#CACACA"/>
</g>
<defs>
<clipPath id="clip0_136320_4681">
<rect width="60" height="60" fill="white" transform="matrix(-1 0 0 1 60.5 0)"/>
</clipPath>
</defs>
</svg>
