<svg width="61" height="60" viewBox="0 0 61 60" fill="none" xmlns="http://www.w3.org/2000/svg">
<path d="M30.5 0C13.932 0 0.5 13.4314 0.5 30C0.5 46.5686 13.932 60 30.5 60C47.068 60 60.5 46.5686 60.5 30C60.5 13.4314 47.068 0 30.5 0ZM45.7176 33.2446C47.1159 34.6103 48.5951 35.8957 49.8504 37.4026C50.4065 38.0692 50.9307 38.7585 51.3297 39.5337C51.8993 40.6392 51.3849 41.8515 50.3954 41.9171L44.2494 41.9159C42.662 42.0473 41.3988 41.4071 40.3339 40.3218C39.4837 39.457 38.695 38.5332 37.8762 37.6389C37.5416 37.2718 37.1893 36.9262 36.7695 36.6543C35.9316 36.1093 35.2036 36.2762 34.7236 37.1515C34.2344 38.0421 34.1227 39.0292 34.0761 40.0205C34.0092 41.4697 33.5721 41.8484 32.118 41.9165C29.0109 42.062 26.0628 41.5906 23.3227 40.0241C20.9055 38.6425 19.0346 36.6924 17.4043 34.4845C14.2297 30.1805 11.7984 25.4566 9.61386 20.597C9.1222 19.5026 9.48189 18.917 10.6893 18.8943C12.6952 18.8557 14.7011 18.8606 16.7071 18.8925C17.5234 18.9054 18.0636 19.3725 18.3772 20.1428C19.4612 22.8098 20.7901 25.3473 22.4554 27.7007C22.8992 28.3274 23.3522 28.9522 23.9973 29.3948C24.7093 29.8834 25.2519 29.7219 25.5877 28.9271C25.8025 28.4219 25.8952 27.8817 25.9418 27.3404C26.1014 25.486 26.1205 23.6323 25.8442 21.7854C25.6724 20.6296 25.0224 19.8832 23.8702 19.6647C23.2834 19.5536 23.3694 19.3363 23.6548 19.0011C24.1501 18.4217 24.6142 18.0632 25.5416 18.0632L32.4857 18.062C33.5801 18.2768 33.8256 18.7679 33.9742 19.8703L33.9803 27.5871C33.9674 28.0137 34.1945 29.2782 34.9606 29.5574C35.5744 29.76 35.9795 29.2677 36.3465 28.8792C38.0118 27.112 39.1983 25.0263 40.2608 22.8675C40.7298 21.9155 41.1343 20.9303 41.5271 19.9433C41.8193 19.2135 42.2735 18.8544 43.0972 18.8667L49.7841 18.8747C49.9811 18.8747 50.1812 18.8765 50.3764 18.9103C51.5034 19.103 51.8121 19.5879 51.4635 20.6873C50.9147 22.4145 49.8485 23.8533 48.8063 25.2958C47.6892 26.8401 46.4977 28.3304 45.3917 29.8815C44.3752 31.2994 44.4556 32.0133 45.7176 33.2446Z" fill="#CACACA"/>
</svg>
